<svg width="0" height="0" class="hidden">
 <symbol  xmlns="http://www.w3.org/2000/svg" viewBox="0 0 18 12" id="menuBtn">
    <rect width="18" height="2" fill="#6C7982"></rect>
    <rect y="5" width="18" height="2" fill="#6C7982"></rect>
    <rect y="10" width="18" height="2" fill="#6C7982"></rect>
  </symbol>
  <symbol  xmlns="http://www.w3.org/2000/svg" viewBox="0 0 16 17" id="closeBtn">
    <path d="M14.4142 0.247925L15.8284 1.66214L1.4349 16.0557L0.0206874 14.6415L14.4142 0.247925Z" fill="#747E87"></path>
    <path d="M1.41421 0.247925L0 1.66214L14.3935 16.0557L15.8077 14.6415L1.41421 0.247925Z" fill="#747E87"></path>
  </symbol>
     <symbol xmlns="http://www.w3.org/2000/svg" viewBox="0 0 85 65" id="photo-icon">
    <path fill-rule="evenodd" clip-rule="evenodd" d="M40 0C34.4772 0 30 4.47715 30 10V33C30 38.5228 34.4772 43 40 43H41V51L48.1111 43H75C80.5228 43 85 38.5228 85 33V10C85 4.47715 80.5228 0 75 0H40ZM78 7H37V36H78V7Z"></path>
    <path d="M32.2909 45.1119V53.8236H4.70908V32.2157H27V27H6.72727C3.0119 27 0 30.3359 0 34.451V51.5882C0 55.7033 3.0119 59.0392 6.72727 59.0392H24.8162L29.6 65V59.0392H30.2727C33.9881 59.0392 37 55.7033 37 51.5882V46.9231L32.2909 45.1119Z"></path>
    <path d="M68.6909 45V55.2242H49.3091V50.2797L46 51.3077V53.9555C46 56.2911 48.1165 58.1844 50.7273 58.1844H51.2V61.5676L54.5616 58.1844H67.2727C69.8835 58.1844 72 56.2911 72 53.9555V45H68.6909Z"></path>
  </symbol>
</svg>